# xmcd
#
# Track frame offsets: 
#        150
#        18762
#        36030
#        48077
#        64672
#        82732
#        97220
#        111595
#        127880
#        142752
#
# Disc length: 2117 seconds
#
# Revision: 2
# Processed by: cddbd v1.4PL0 Copyright (c) Steve Scherf et al.
# Submitted via: ExactAudioCopy v0.90b3
#
DISCID=7508430a
DTITLE=Trisha Yearwood - Trisha Yearwood
DYEAR=1991
DGENRE=
TTITLE0=She's In Love With The Boy
TTITLE1=The Woman Before Me
TTITLE2=That's What I Like About You
TTITLE3=Like We Never Had A Broken Heart
TTITLE4=Fools Like Me
TTITLE5=Victim Of The Game
TTITLE6=When Goodbye Was A Word
TTITLE7=The Whisper Of Your Heart
TTITLE8=You Done Me Wrong (And That Ain't Right)
TTITLE9=Lonesome Dove
EXTD=
EXTT0=
EXTT1=
EXTT2=
EXTT3=
EXTT4=
EXTT5=
EXTT6=
EXTT7=
EXTT8=
EXTT9=
PLAYORDER=
